<svg width="31" height="30" viewBox="0 0 31 30" fill="none" xmlns="http://www.w3.org/2000/svg">
<path d="M19.7446 16.0176C24.8824 16.0176 29.0474 14.2267 29.0474 12.0176C29.0474 9.80844 24.8824 8.01758 19.7446 8.01758C14.6069 8.01758 10.4419 9.80844 10.4419 12.0176C10.4419 14.2267 14.6069 16.0176 19.7446 16.0176Z" stroke="#000001" stroke-width="3" stroke-linecap="round" stroke-linejoin="round"/>
<path d="M10.4419 12.0176V24.0176C10.4419 26.2176 14.5765 28.0176 19.7446 28.0176C24.9128 28.0176 29.0474 26.2176 29.0474 24.0176V12.0176" stroke="#000001" stroke-width="3" stroke-linecap="round" stroke-linejoin="round"/>
<path d="M29.0474 18.0176C29.0474 20.2176 24.9128 22.0176 19.7446 22.0176C14.5765 22.0176 10.4419 20.2176 10.4419 18.0176" stroke="#000001" stroke-width="3" stroke-linecap="round" stroke-linejoin="round"/>
<path d="M19.5379 4.01755C17.1222 2.5753 14.3104 1.87778 11.4755 2.01755C6.32796 2.01755 2.17273 3.81755 2.17273 6.01755C2.17273 7.19755 3.37175 8.25755 5.27365 9.01755" stroke="#000001" stroke-width="3" stroke-linecap="round" stroke-linejoin="round"/>
<path d="M5.27365 21.0176C3.37175 20.2576 2.17273 19.1976 2.17273 18.0176V6.01758" stroke="#000001" stroke-width="3" stroke-linecap="round" stroke-linejoin="round"/>
<path d="M5.27365 15.0176C3.37175 14.2576 2.17273 13.1976 2.17273 12.0176" stroke="#000001" stroke-width="3" stroke-linecap="round" stroke-linejoin="round"/>
</svg>
