<svg width="8" height="26" viewBox="0 0 8 26" fill="none" xmlns="http://www.w3.org/2000/svg">
<path d="M4.00002 7.00003C5.42018 7.00003 6.57145 5.84877 6.57145 4.42861C6.57145 3.00845 5.42018 1.85718 4.00002 1.85718C2.57986 1.85718 1.42859 3.00845 1.42859 4.42861C1.42859 5.84877 2.57986 7.00003 4.00002 7.00003Z" stroke="white" stroke-width="2.31353" stroke-linecap="round" stroke-linejoin="round"/>
<path d="M4.00002 15.5714C5.42018 15.5714 6.57145 14.4202 6.57145 13C6.57145 11.5799 5.42018 10.4286 4.00002 10.4286C2.57986 10.4286 1.42859 11.5799 1.42859 13C1.42859 14.4202 2.57986 15.5714 4.00002 15.5714Z" stroke="white" stroke-width="2.31353" stroke-linecap="round" stroke-linejoin="round"/>
<path d="M4.00002 24.1429C5.42018 24.1429 6.57145 22.9916 6.57145 21.5715C6.57145 20.1513 5.42018 19 4.00002 19C2.57986 19 1.42859 20.1513 1.42859 21.5715C1.42859 22.9916 2.57986 24.1429 4.00002 24.1429Z" stroke="white" stroke-width="2.31353" stroke-linecap="round" stroke-linejoin="round"/>
</svg>
