<svg width="36" height="36" viewBox="0 0 36 36" fill="none" xmlns="http://www.w3.org/2000/svg">
<path d="M30.3077 19.2267V14.3036C30.3077 13.6508 30.0484 13.0247 29.5867 12.5631C29.1251 12.1014 28.499 11.8421 27.8462 11.8421H4.46154C3.8087 11.8421 3.1826 12.1014 2.72097 12.5631C2.25934 13.0247 2 13.6508 2 14.3036V31.5344C2 32.1873 2.25934 32.8134 2.72097 33.275C3.1826 33.7366 3.8087 33.996 4.46154 33.996H27.8462C28.499 33.996 29.1251 33.7366 29.5867 33.275C30.0484 32.8134 30.3077 32.1873 30.3077 31.5344V25.3806" stroke="white" stroke-width="3" stroke-linecap="round" stroke-linejoin="round"/>
<path d="M10.2216 5.68828L24.1785 2.0452C24.3354 2.00101 24.4995 1.98906 24.6611 2.01006C24.8227 2.03107 24.9784 2.08459 25.1187 2.16741C25.259 2.25022 25.3811 2.36061 25.4776 2.49191C25.5741 2.62321 25.643 2.7727 25.6801 2.93136L26.3693 5.68828" stroke="white" stroke-width="3" stroke-linecap="round" stroke-linejoin="round"/>
<path d="M32.7693 19.2267H26.6154C25.9357 19.2267 25.3846 19.7778 25.3846 20.4575V24.1498C25.3846 24.8296 25.9357 25.3806 26.6154 25.3806H32.7693C33.449 25.3806 34 24.8296 34 24.1498V20.4575C34 19.7778 33.449 19.2267 32.7693 19.2267Z" stroke="white" stroke-width="3" stroke-linecap="round" stroke-linejoin="round"/>
</svg>
