<svg width="46" height="46" viewBox="0 0 46 46" fill="none" xmlns="http://www.w3.org/2000/svg">
<path d="M14.9231 2H5.23077C3.44646 2 2 3.44646 2 5.23077V14.9231C2 16.7074 3.44646 18.1538 5.23077 18.1538H14.9231C16.7074 18.1538 18.1538 16.7074 18.1538 14.9231V5.23077C18.1538 3.44646 16.7074 2 14.9231 2Z" stroke="white" stroke-width="3" stroke-linecap="round" stroke-linejoin="round"/>
<path d="M40.7692 2H31.0769C29.2926 2 27.8461 3.44646 27.8461 5.23077V14.9231C27.8461 16.7074 29.2926 18.1538 31.0769 18.1538H40.7692C42.5535 18.1538 44 16.7074 44 14.9231V5.23077C44 3.44646 42.5535 2 40.7692 2Z" stroke="white" stroke-width="3" stroke-linecap="round" stroke-linejoin="round"/>
<path d="M14.9231 27.8462H5.23077C3.44646 27.8462 2 29.2926 2 31.0769V40.7692C2 42.5535 3.44646 44 5.23077 44H14.9231C16.7074 44 18.1538 42.5535 18.1538 40.7692V31.0769C18.1538 29.2926 16.7074 27.8462 14.9231 27.8462Z" stroke="white" stroke-width="3" stroke-linecap="round" stroke-linejoin="round"/>
<path d="M40.7692 27.8462H31.0769C29.2926 27.8462 27.8461 29.2926 27.8461 31.0769V40.7692C27.8461 42.5535 29.2926 44 31.0769 44H40.7692C42.5535 44 44 42.5535 44 40.7692V31.0769C44 29.2926 42.5535 27.8462 40.7692 27.8462Z" stroke="white" stroke-width="3" stroke-linecap="round" stroke-linejoin="round"/>
</svg>
