<svg width="43" height="35" viewBox="0 0 43 35" fill="none" xmlns="http://www.w3.org/2000/svg">
<path d="M30.5 2H5C3.34315 2 2 3.34315 2 5V23C2 24.6569 3.34315 26 5 26H30.5C32.1569 26 33.5 24.6569 33.5 23V5C33.5 3.34315 32.1569 2 30.5 2Z" stroke="white" stroke-width="3" stroke-linecap="round" stroke-linejoin="round"/>
<path d="M17.75 18.5C20.2353 18.5 22.25 16.4853 22.25 14C22.25 11.5147 20.2353 9.5 17.75 9.5C15.2647 9.5 13.25 11.5147 13.25 14C13.25 16.4853 15.2647 18.5 17.75 18.5Z" stroke="white" stroke-width="3" stroke-linecap="round" stroke-linejoin="round"/>
<path d="M11 33.5H38C38.7956 33.5 39.5587 33.1839 40.1213 32.6213C40.6839 32.0587 41 31.2956 41 30.5V15.5" stroke="white" stroke-width="3" stroke-linecap="round" stroke-linejoin="round"/>
</svg>
