<svg width="24.000000" height="24.000000" viewBox="0 0 24 24" fill="none" xmlns="http://www.w3.org/2000/svg" xmlns:xlink="http://www.w3.org/1999/xlink">
	<desc>
			Created with Pixso.
	</desc>
	<defs>
		<clipPath id="clip15_422">
			<rect id="heroicons-outline/gift" rx="0.000000" width="22.666666" height="22.666666" transform="translate(0.666667 0.666667)" fill="white" fill-opacity="0"/>
		</clipPath>
	</defs>
	<g clip-path="url(#clip15_422)">
		<path id="Vector" d="M21.37 7.5C21.99 7.5 22.5 8 22.5 8.62L22.5 10.12C22.5 10.74 21.99 11.25 21.37 11.25L3.37 11.25C2.75 11.25 2.25 10.74 2.25 10.12L2.25 8.62C2.25 8 2.75 7.5 3.37 7.5L21.37 7.5ZM21 11.25L21 19.5C21 20.32 20.32 21 19.5 21L5.25 21C4.42 21 3.75 20.32 3.75 19.5L3.75 11.25M12 7.5C12 7.5 10.1 7.5 9.37 7.5C7.92 7.5 6.75 6.32 6.75 4.87C6.75 3.42 7.92 2.25 9.37 2.25C10.82 2.25 12 3.42 12 4.87C12 5.59 12 7.5 12 7.5L12 21M12 7.5C12 7.5 13.89 7.5 14.62 7.5C16.07 7.5 17.25 6.32 17.25 4.87C17.25 3.42 16.07 2.25 14.62 2.25C13.17 2.25 12 3.42 12 4.87" stroke="#0F172A" stroke-opacity="1.000000" stroke-width="1.500000" stroke-linejoin="round" stroke-linecap="round"/>
	</g>
</svg>
