<svg width="24.000000" height="24.000000" viewBox="0 0 24 24" fill="none" xmlns="http://www.w3.org/2000/svg" xmlns:xlink="http://www.w3.org/1999/xlink">
	<desc>
			Created with Pixso.
	</desc>
	<defs>
		<clipPath id="clip15_414">
			<rect id="heroicons-outline/puzzle-piece" rx="0.000000" width="23.000000" height="23.000000" transform="translate(0.500000 0.500000)" fill="white" fill-opacity="0"/>
		</clipPath>
	</defs>
	<g clip-path="url(#clip15_414)">
		<path id="Union" d="M14.25 6.08C14.25 6.41 14.52 6.68 14.86 6.66C16.81 6.55 18.74 6.31 20.62 5.97C20.84 7.73 20.97 9.52 20.99 11.33C20.99 11.7 20.7 12 20.33 12C19.98 12 19.66 11.81 19.37 11.59C19.08 11.37 18.74 11.25 18.37 11.25C17.33 11.25 16.5 12.25 16.5 13.5C16.5 14.74 17.33 15.75 18.37 15.75C18.74 15.75 19.08 15.62 19.37 15.4C19.66 15.18 19.98 15 20.33 15C20.64 15 20.89 15.26 20.86 15.56C20.75 17.16 20.55 18.73 20.28 20.28C18.51 20.59 16.69 20.8 14.86 20.91C14.52 20.93 14.25 20.66 14.25 20.33C14.25 19.98 14.43 19.66 14.65 19.37C14.87 19.08 15 18.74 15 18.37C15 17.33 13.99 16.5 12.75 16.5C11.5 16.5 10.5 17.33 10.5 18.37C10.5 18.74 10.62 19.08 10.84 19.37C11.06 19.66 11.25 19.98 11.25 20.33C11.25 20.69 10.95 20.99 10.59 20.97C9.03 20.93 7.49 20.81 5.97 20.62C6.27 18.96 6.49 17.28 6.61 15.56C6.64 15.26 6.39 15 6.08 15C5.73 15 5.41 15.18 5.12 15.4C4.83 15.62 4.49 15.75 4.12 15.75C3.08 15.75 2.25 14.74 2.25 13.5C2.25 12.25 3.08 11.25 4.12 11.25C4.49 11.25 4.83 11.37 5.12 11.59C5.41 11.81 5.73 12 6.08 12C6.45 12 6.74 11.7 6.74 11.33C6.72 9.67 6.61 8.04 6.42 6.42C7.8 6.58 9.18 6.68 10.59 6.72C10.95 6.73 11.25 6.44 11.25 6.08C11.25 5.73 11.06 5.41 10.84 5.12C10.62 4.83 10.5 4.49 10.5 4.12C10.5 3.08 11.5 2.25 12.75 2.25C13.99 2.25 15 3.08 15 4.12C15 4.49 14.87 4.83 14.65 5.12C14.43 5.41 14.25 5.73 14.25 6.08Z" stroke="#0F172A" stroke-opacity="1.000000" stroke-width="1.500000" stroke-linejoin="round"/>
	</g>
</svg>
