<svg width="24" height="24" viewBox="0 0 24 24" fill="none" xmlns="http://www.w3.org/2000/svg">
<path d="M12 1.20001C8.0236 1.20001 4.80005 4.42356 4.80005 8.40001C4.80005 10.6382 5.82242 12.6384 7.42227 13.9576C8.68502 14.9987 9.60005 16.1313 9.60005 17.3469V18.1203C9.60005 18.5351 9.88355 18.8962 10.2865 18.9946C10.8366 19.129 11.4106 19.2 12 19.2C12.5895 19.2 13.1635 19.129 13.7136 18.9946C14.1165 18.8962 14.4 18.5351 14.4 18.1203V17.3469C14.4 16.1313 15.3151 14.9987 16.5778 13.9576C18.1777 12.6384 19.2 10.6382 19.2 8.40001C19.2 4.42356 15.9765 1.20001 12 1.20001Z" stroke="#00D916" stroke-width="1.5" stroke-linecap="round"/>
<path d="M10.6354 20.8973C10.144 20.8227 9.68508 21.1605 9.61039 21.6519C9.5357 22.1433 9.87352 22.6022 10.3649 22.6769C10.8987 22.758 11.4448 22.8 12.0002 22.8C12.5555 22.8 13.1016 22.758 13.6354 22.6769C14.1268 22.6022 14.4646 22.1433 14.39 21.6519C14.3153 21.1605 13.8563 20.8227 13.3649 20.8973C12.9204 20.9649 12.4647 21 12.0002 21C11.5357 21 11.08 20.9649 10.6354 20.8973Z" stroke="#00D916" stroke-width="1.5" stroke-linecap="round"/>
</svg>
