<svg width="24.000000" height="24.000000" viewBox="0 0 24 24" fill="none" xmlns="http://www.w3.org/2000/svg" xmlns:xlink="http://www.w3.org/1999/xlink">
	<desc>
			Created with Pixso.
	</desc>
	<defs>
		<clipPath id="clip15_419">
			<rect id="heroicons-mini/light-bulb" rx="0.000000" width="23.000000" height="23.000000" transform="translate(0.500000 0.500000)" fill="white" fill-opacity="0"/>
		</clipPath>
	</defs>
	<g clip-path="url(#clip15_419)">
		<path id="Union" d="M4 7C4 3.68 6.68 1 10 1C13.31 1 16 3.68 16 7C16 8.86 15.14 10.53 13.81 11.63C12.76 12.49 12 13.44 12 14.45L12 15.1C12 15.44 11.76 15.74 11.42 15.82C10.96 15.94 10.49 16 10 16C9.5 16 9.03 15.94 8.57 15.82C8.23 15.74 8 15.44 8 15.1L8 14.45C8 13.44 7.23 12.49 6.18 11.63C4.85 10.53 4 8.86 4 7ZM8 18.04C8.07 17.63 8.45 17.35 8.86 17.41C9.23 17.47 9.61 17.5 10 17.5C10.38 17.5 10.76 17.47 11.13 17.41C11.54 17.35 11.92 17.63 11.99 18.04C12.05 18.45 11.77 18.83 11.36 18.89C10.91 18.96 10.46 19 10 19C9.53 19 9.08 18.96 8.63 18.89C8.22 18.83 7.94 18.45 8 18.04Z" fill="#0F172A" fill-opacity="1.000000" fill-rule="evenodd"/>
	</g>
</svg>
